<svg width="17" height="17" viewBox="0 0 17 17" fill="none" xmlns="http://www.w3.org/2000/svg">
<path d="M15.9192 6.665C16.0217 7.21417 16.0775 7.78833 16.0775 8.3875C16.0775 13.0742 12.9408 16.4067 8.20333 16.4067C7.12596 16.407 6.05909 16.195 5.06367 15.7829C4.06824 15.3708 3.16378 14.7665 2.40197 14.0047C1.64015 13.2429 1.03591 12.3384 0.623773 11.343C0.211633 10.3476 -0.000328102 9.2807 3.8121e-07 8.20333C-0.000328102 7.12597 0.211633 6.05909 0.623773 5.06367C1.03591 4.06824 1.64015 3.16378 2.40197 2.40197C3.16378 1.64015 4.06824 1.03591 5.06367 0.623773C6.05909 0.211633 7.12596 -0.000328102 8.20333 3.8121e-07C10.4183 3.8121e-07 12.2692 0.815001 13.6892 2.13833L11.3767 4.45083V4.445C10.5158 3.625 9.42333 3.20417 8.20333 3.20417C5.49667 3.20417 3.29667 5.49084 3.29667 8.19834C3.29667 10.905 5.49667 13.1967 8.20333 13.1967C10.6592 13.1967 12.3308 11.7925 12.6742 9.86417H8.20333V6.665H15.92H15.9192Z" fill="#B22222"/>
</svg>
